<svg width="1200" height="720" viewBox="0 0 1200 720" fill="none" xmlns="http://www.w3.org/2000/svg">
  <defs>
    <linearGradient id="bg" x1="84" y1="70" x2="1114" y2="650" gradientUnits="userSpaceOnUse">
      <stop stop-color="#08111D"/>
      <stop offset="0.54" stop-color="#0A1624"/>
      <stop offset="1" stop-color="#102231"/>
    </linearGradient>
    <radialGradient id="glowA" cx="0" cy="0" r="1" gradientUnits="userSpaceOnUse" gradientTransform="translate(220 166) rotate(90) scale(200 290)">
      <stop stop-color="#56D6FF" stop-opacity="0.22"/>
      <stop offset="1" stop-color="#56D6FF" stop-opacity="0"/>
    </radialGradient>
    <radialGradient id="glowB" cx="0" cy="0" r="1" gradientUnits="userSpaceOnUse" gradientTransform="translate(968 506) rotate(90) scale(240 320)">
      <stop stop-color="#85FFC7" stop-opacity="0.16"/>
      <stop offset="1" stop-color="#85FFC7" stop-opacity="0"/>
    </radialGradient>
    <linearGradient id="pathGlow" x1="228" y1="362" x2="970" y2="362" gradientUnits="userSpaceOnUse">
      <stop stop-color="#5BD7FF"/>
      <stop offset="1" stop-color="#86FFC6"/>
    </linearGradient>
    <filter id="blur" x="-20%" y="-20%" width="140%" height="140%">
      <feGaussianBlur stdDeviation="18"/>
    </filter>
  </defs>

  <rect width="1200" height="720" rx="38" fill="url(#bg)"/>
  <rect width="1200" height="720" rx="38" fill="url(#glowA)"/>
  <rect width="1200" height="720" rx="38" fill="url(#glowB)"/>

  <path d="M228 362H970" stroke="url(#pathGlow)" stroke-width="8" stroke-linecap="round"/>
  <path d="M228 362H970" stroke="#86FFC6" stroke-opacity="0.18" stroke-width="24" stroke-linecap="round" filter="url(#blur)"/>

  <g transform="translate(130 186)">
    <rect width="258" height="352" rx="32" fill="#0A1724" stroke="#274A5D" stroke-width="2"/>
    <rect x="24" y="26" width="210" height="40" rx="20" fill="#112234"/>
    <circle cx="48" cy="46" r="8" fill="#5AD6FF" fill-opacity="0.82"/>
    <rect x="68" y="38" width="92" height="14" rx="7" fill="#17344A"/>

    <rect x="26" y="98" width="206" height="102" rx="24" fill="#0E1D2C" stroke="#2B5366" stroke-width="2"/>
    <rect x="48" y="122" width="20" height="20" rx="6" fill="#09131C" stroke="#5AD6FF" stroke-width="2"/>
    <path d="M52 132L58 138L66 126" stroke="#86FFC6" stroke-width="3.5" stroke-linecap="round" stroke-linejoin="round"/>
    <rect x="82" y="122" width="108" height="12" rx="6" fill="#173349"/>
    <rect x="82" y="146" width="86" height="10" rx="5" fill="#122C3F"/>
    <rect x="48" y="172" width="142" height="10" rx="5" fill="#122C3F"/>

    <rect x="26" y="226" width="206" height="92" rx="24" fill="#0C1A29" stroke="#2A4F61" stroke-width="2"/>
    <rect x="46" y="248" width="70" height="14" rx="7" fill="#173349"/>
    <rect x="46" y="274" width="118" height="10" rx="5" fill="#122C3F"/>
    <rect x="46" y="292" width="84" height="10" rx="5" fill="#122C3F"/>
  </g>

  <g transform="translate(470 142)">
    <rect width="260" height="440" rx="34" fill="#0A1725" stroke="#285062" stroke-width="2"/>
    <rect x="22" y="24" width="216" height="42" rx="21" fill="#102133"/>
    <circle cx="44" cy="45" r="8" fill="#86FFC6" fill-opacity="0.82"/>
    <rect x="64" y="38" width="104" height="14" rx="7" fill="#17344A"/>

    <g transform="translate(26 98)">
      <rect width="208" height="80" rx="22" fill="#0E1D2C" stroke="#2B5366" stroke-width="2"/>
      <rect x="18" y="18" width="52" height="44" rx="16" fill="#11293D" stroke="#2F5968"/>
      <path d="M34 40H54" stroke="#86FFC6" stroke-width="4" stroke-linecap="round"/>
      <path d="M38 50H50" stroke="#86FFC6" stroke-width="4" stroke-linecap="round"/>
      <rect x="88" y="22" width="92" height="12" rx="6" fill="#173349"/>
      <rect x="88" y="44" width="70" height="10" rx="5" fill="#122C3F"/>
    </g>

    <g transform="translate(26 196)">
      <rect width="208" height="80" rx="22" fill="#112031" stroke="#335E6B" stroke-width="2"/>
      <rect x="18" y="18" width="52" height="44" rx="16" fill="#123046" stroke="#3A6771"/>
      <circle cx="44" cy="40" r="11" fill="#5AD6FF" fill-opacity="0.65"/>
      <rect x="88" y="22" width="92" height="12" rx="6" fill="#173349"/>
      <rect x="88" y="44" width="70" height="10" rx="5" fill="#122C3F"/>
    </g>

    <g transform="translate(26 294)">
      <rect width="208" height="80" rx="22" fill="#0E1D2C" stroke="#2B5366" stroke-width="2"/>
      <rect x="18" y="18" width="52" height="44" rx="16" fill="#11293D" stroke="#2F5968"/>
      <rect x="30" y="28" width="28" height="24" rx="12" fill="#86FFC6" fill-opacity="0.7"/>
      <rect x="88" y="22" width="92" height="12" rx="6" fill="#173349"/>
      <rect x="88" y="44" width="70" height="10" rx="5" fill="#122C3F"/>
    </g>
  </g>

  <g transform="translate(814 196)">
    <rect width="258" height="352" rx="32" fill="#0A1724" stroke="#274A5D" stroke-width="2"/>
    <rect x="24" y="26" width="210" height="40" rx="20" fill="#112234"/>
    <circle cx="48" cy="46" r="8" fill="#86FFC6" fill-opacity="0.82"/>
    <rect x="68" y="38" width="96" height="14" rx="7" fill="#17344A"/>

    <rect x="26" y="98" width="206" height="102" rx="24" fill="#0E1D2C" stroke="#2B5366" stroke-width="2"/>
    <rect x="48" y="120" width="60" height="14" rx="7" fill="#173349"/>
    <rect x="48" y="146" width="136" height="10" rx="5" fill="#122C3F"/>
    <rect x="48" y="164" width="108" height="10" rx="5" fill="#122C3F"/>
    <g transform="translate(150 118)">
      <rect width="52" height="52" rx="18" fill="#112A3D" stroke="#315A67"/>
      <circle cx="26" cy="26" r="10" fill="#86FFC6"/>
    </g>

    <rect x="26" y="226" width="206" height="92" rx="24" fill="#0C1A29" stroke="#2A4F61" stroke-width="2"/>
    <rect x="46" y="248" width="34" height="34" rx="10" fill="#11293D" stroke="#315A67"/>
    <path d="M56 266L62 272L72 258" stroke="#86FFC6" stroke-width="3.5" stroke-linecap="round" stroke-linejoin="round"/>
    <rect x="96" y="252" width="98" height="10" rx="5" fill="#173349"/>
    <rect x="96" y="272" width="76" height="10" rx="5" fill="#122C3F"/>
  </g>

  <g>
    <circle cx="228" cy="362" r="18" fill="#08131C" stroke="#5AD6FF" stroke-width="4"/>
    <circle cx="600" cy="362" r="22" fill="#08131C" stroke="#86FFC6" stroke-width="5"/>
    <circle cx="970" cy="362" r="18" fill="#08131C" stroke="#5AD6FF" stroke-width="4"/>
  </g>
</svg>
