<svg width="1200" height="720" viewBox="0 0 1200 720" fill="none" xmlns="http://www.w3.org/2000/svg">
  <defs>
    <linearGradient id="bg" x1="78" y1="64" x2="1110" y2="660" gradientUnits="userSpaceOnUse">
      <stop stop-color="#07111E"/>
      <stop offset="0.55" stop-color="#0A1627"/>
      <stop offset="1" stop-color="#102536"/>
    </linearGradient>
    <radialGradient id="glowA" cx="0" cy="0" r="1" gradientUnits="userSpaceOnUse" gradientTransform="translate(220 180) rotate(90) scale(230 300)">
      <stop stop-color="#46CCFF" stop-opacity="0.26"/>
      <stop offset="1" stop-color="#46CCFF" stop-opacity="0"/>
    </radialGradient>
    <radialGradient id="glowB" cx="0" cy="0" r="1" gradientUnits="userSpaceOnUse" gradientTransform="translate(980 520) rotate(90) scale(220 320)">
      <stop stop-color="#86FFC6" stop-opacity="0.18"/>
      <stop offset="1" stop-color="#86FFC6" stop-opacity="0"/>
    </radialGradient>
    <linearGradient id="route" x1="188" y1="416" x2="1002" y2="252" gradientUnits="userSpaceOnUse">
      <stop stop-color="#6DE6FF"/>
      <stop offset="1" stop-color="#82FFC4"/>
    </linearGradient>
    <filter id="soft" x="-20%" y="-20%" width="140%" height="140%">
      <feGaussianBlur stdDeviation="18"/>
    </filter>
  </defs>

  <rect width="1200" height="720" rx="38" fill="url(#bg)"/>
  <rect width="1200" height="720" rx="38" fill="url(#glowA)"/>
  <rect width="1200" height="720" rx="38" fill="url(#glowB)"/>

  <g opacity="0.18">
    <path d="M92 116H1108" stroke="#7DE7FF" stroke-width="2"/>
    <path d="M92 232H1108" stroke="#7DE7FF" stroke-width="2"/>
    <path d="M92 348H1108" stroke="#7DE7FF" stroke-width="2"/>
    <path d="M92 464H1108" stroke="#7DE7FF" stroke-width="2"/>
    <path d="M92 580H1108" stroke="#7DE7FF" stroke-width="2"/>
    <path d="M168 88V624" stroke="#7DE7FF" stroke-width="2"/>
    <path d="M332 88V624" stroke="#7DE7FF" stroke-width="2"/>
    <path d="M496 88V624" stroke="#7DE7FF" stroke-width="2"/>
    <path d="M660 88V624" stroke="#7DE7FF" stroke-width="2"/>
    <path d="M824 88V624" stroke="#7DE7FF" stroke-width="2"/>
    <path d="M988 88V624" stroke="#7DE7FF" stroke-width="2"/>
  </g>

  <g opacity="0.96">
    <rect x="136" y="142" width="160" height="132" rx="28" fill="#0C1827" stroke="#244358" stroke-width="2"/>
    <rect x="364" y="138" width="204" height="156" rx="34" fill="#0D1A2B" stroke="#26485A" stroke-width="2"/>
    <rect x="632" y="154" width="152" height="122" rx="26" fill="#0C1828" stroke="#25455A" stroke-width="2"/>
    <rect x="842" y="132" width="210" height="164" rx="32" fill="#0B1725" stroke="#27475B" stroke-width="2"/>
    <rect x="154" y="352" width="226" height="168" rx="34" fill="#0B1726" stroke="#26485A" stroke-width="2"/>
    <rect x="448" y="372" width="188" height="132" rx="28" fill="#0C1827" stroke="#274A5F" stroke-width="2"/>
    <rect x="704" y="350" width="312" height="184" rx="38" fill="#0B1624" stroke="#27475B" stroke-width="2"/>
  </g>

  <g opacity="0.42">
    <rect x="174" y="164" width="84" height="16" rx="8" fill="#14334A"/>
    <rect x="174" y="194" width="58" height="16" rx="8" fill="#123146"/>
    <rect x="390" y="164" width="112" height="18" rx="9" fill="#15364B"/>
    <rect x="390" y="196" width="84" height="18" rx="9" fill="#123146"/>
    <rect x="658" y="176" width="84" height="18" rx="9" fill="#15364B"/>
    <rect x="870" y="158" width="126" height="18" rx="9" fill="#15364B"/>
    <rect x="870" y="190" width="92" height="18" rx="9" fill="#123146"/>
    <rect x="182" y="382" width="110" height="18" rx="9" fill="#15364B"/>
    <rect x="182" y="414" width="86" height="18" rx="9" fill="#123146"/>
    <rect x="470" y="396" width="98" height="18" rx="9" fill="#15364B"/>
    <rect x="726" y="382" width="160" height="18" rx="9" fill="#15364B"/>
  </g>

  <path d="M188 416L330 452L456 382L604 438L736 354L892 392L1002 252" stroke="url(#route)" stroke-width="10" stroke-linecap="round" stroke-linejoin="round"/>
  <path d="M188 416L330 452L456 382L604 438L736 354L892 392L1002 252" stroke="#7FFFE2" stroke-opacity="0.35" stroke-width="24" stroke-linecap="round" stroke-linejoin="round" filter="url(#soft)"/>

  <g>
    <circle cx="188" cy="416" r="18" fill="#061018" stroke="#4CD7FF" stroke-width="4"/>
    <circle cx="188" cy="416" r="7" fill="#84FFC7"/>
    <circle cx="330" cy="452" r="18" fill="#061018" stroke="#4CD7FF" stroke-width="4"/>
    <circle cx="330" cy="452" r="7" fill="#84FFC7"/>
    <circle cx="456" cy="382" r="18" fill="#061018" stroke="#4CD7FF" stroke-width="4"/>
    <circle cx="456" cy="382" r="7" fill="#84FFC7"/>
    <circle cx="604" cy="438" r="18" fill="#061018" stroke="#4CD7FF" stroke-width="4"/>
    <circle cx="604" cy="438" r="7" fill="#84FFC7"/>
    <circle cx="736" cy="354" r="18" fill="#061018" stroke="#4CD7FF" stroke-width="4"/>
    <circle cx="736" cy="354" r="7" fill="#84FFC7"/>
    <circle cx="892" cy="392" r="18" fill="#061018" stroke="#4CD7FF" stroke-width="4"/>
    <circle cx="892" cy="392" r="7" fill="#84FFC7"/>
    <circle cx="1002" cy="252" r="22" fill="#08131D" stroke="#86FFC6" stroke-width="5"/>
    <path d="M996 244H1008V260H996V244Z" fill="#86FFC6"/>
    <path d="M986 252H1018" stroke="#86FFC6" stroke-width="4" stroke-linecap="round"/>
  </g>

  <g transform="translate(780 420)">
    <rect width="280" height="148" rx="28" fill="#08131D" fill-opacity="0.82" stroke="#2A5064" stroke-width="2"/>
    <rect x="24" y="22" width="102" height="18" rx="9" fill="#14344A"/>
    <rect x="24" y="58" width="232" height="14" rx="7" fill="#10283A"/>
    <rect x="24" y="84" width="198" height="14" rx="7" fill="#10283A"/>
    <rect x="24" y="110" width="154" height="14" rx="7" fill="#10283A"/>
    <g transform="translate(192 24)">
      <rect width="60" height="88" rx="18" fill="#0D2230" stroke="#2D5664"/>
      <rect x="12" y="16" width="12" height="54" rx="6" fill="#4FD7FF" fill-opacity="0.48"/>
      <rect x="30" y="28" width="12" height="42" rx="6" fill="#84FFC7" fill-opacity="0.62"/>
    </g>
  </g>

  <g transform="translate(132 88)" opacity="0.95">
    <path d="M0 38C0 17.0132 17.0132 0 38 0C58.9868 0 76 17.0132 76 38V46H0V38Z" fill="#0A1825" stroke="#264D5F" stroke-width="2"/>
    <rect x="8" y="46" width="60" height="72" rx="18" fill="#0B1B2A" stroke="#2A5264" stroke-width="2"/>
    <path d="M22 74H54" stroke="#86FFC6" stroke-width="4" stroke-linecap="round"/>
    <path d="M28 88H48" stroke="#86FFC6" stroke-width="4" stroke-linecap="round"/>
  </g>

  <g transform="translate(596 286)">
    <rect x="0" y="0" width="92" height="52" rx="22" fill="#0A1824" stroke="#2A5264" stroke-width="2"/>
    <rect x="20" y="14" width="16" height="24" rx="8" fill="#4FD7FF" fill-opacity="0.46"/>
    <rect x="44" y="10" width="28" height="32" rx="14" fill="#86FFC6" fill-opacity="0.7"/>
  </g>
</svg>
