<svg width="1600" height="1000" viewBox="0 0 1600 1000" fill="none" xmlns="http://www.w3.org/2000/svg">
  <rect width="1600" height="1000" fill="#061019"/>
  <rect x="64" y="64" width="1472" height="872" rx="36" fill="url(#bg)" stroke="rgba(121,232,255,0.18)"/>
  <g opacity="0.75">
    <circle cx="210" cy="180" r="6" fill="#79E8FF"/>
    <circle cx="420" cy="120" r="4" fill="#83FFC3"/>
    <circle cx="1330" cy="190" r="5" fill="#79E8FF"/>
    <circle cx="1210" cy="780" r="6" fill="#83FFC3"/>
    <path d="M210 180L420 120L620 180" stroke="rgba(121,232,255,0.16)" stroke-width="2"/>
    <path d="M1130 760L1210 780L1330 690" stroke="rgba(131,255,195,0.18)" stroke-width="2"/>
  </g>

  <rect x="180" y="170" width="430" height="560" rx="28" fill="rgba(7,20,31,0.8)" stroke="rgba(121,232,255,0.16)"/>
  <rect x="245" y="250" width="300" height="240" rx="22" fill="url(#photo1)"/>
  <rect x="245" y="530" width="300" height="26" rx="13" fill="rgba(121,232,255,0.14)"/>
  <rect x="245" y="580" width="240" height="18" rx="9" fill="rgba(255,255,255,0.12)"/>
  <rect x="245" y="618" width="180" height="18" rx="9" fill="rgba(255,255,255,0.08)"/>

  <rect x="530" y="250" width="470" height="320" rx="30" fill="rgba(9,24,36,0.84)" stroke="rgba(131,255,195,0.16)"/>
  <rect x="580" y="312" width="370" height="190" rx="24" fill="url(#photo2)"/>
  <circle cx="665" cy="280" r="12" fill="#83FFC3"/>
  <rect x="580" y="610" width="250" height="20" rx="10" fill="rgba(255,255,255,0.12)"/>
  <rect x="580" y="648" width="160" height="18" rx="9" fill="rgba(255,255,255,0.08)"/>

  <g filter="url(#shadow)">
    <rect x="1035" y="300" width="300" height="220" rx="28" fill="rgba(11,28,41,0.92)" stroke="rgba(121,232,255,0.24)"/>
    <rect x="1085" y="350" width="200" height="120" rx="18" fill="rgba(3,10,17,0.72)"/>
    <rect x="1115" y="320" width="70" height="34" rx="12" fill="rgba(121,232,255,0.14)"/>
    <circle cx="1185" cy="410" r="54" fill="none" stroke="#83FFC3" stroke-width="14"/>
    <circle cx="1185" cy="410" r="28" fill="rgba(121,232,255,0.16)"/>
    <circle cx="1265" cy="350" r="10" fill="#79E8FF"/>
  </g>

  <text x="180" y="830" fill="#F3FBFF" font-family="Space Grotesk, Arial, sans-serif" font-size="76" font-weight="700" letter-spacing="-2">
    PhotoSharingApplication
  </text>
  <text x="184" y="885" fill="#97A9BE" font-family="IBM Plex Mono, monospace" font-size="28" letter-spacing="6">
    NATURE GALLERY  /  SHARING  /  BROWSING
  </text>

  <defs>
    <linearGradient id="bg" x1="180" y1="100" x2="1430" y2="900" gradientUnits="userSpaceOnUse">
      <stop stop-color="#081623"/>
      <stop offset="1" stop-color="#050B12"/>
    </linearGradient>
    <linearGradient id="photo1" x1="245" y1="250" x2="545" y2="490" gradientUnits="userSpaceOnUse">
      <stop stop-color="#18364A"/>
      <stop offset="0.55" stop-color="#2A5D62"/>
      <stop offset="1" stop-color="#8ED9A1"/>
    </linearGradient>
    <linearGradient id="photo2" x1="580" y1="312" x2="950" y2="502" gradientUnits="userSpaceOnUse">
      <stop stop-color="#10283C"/>
      <stop offset="0.45" stop-color="#355A77"/>
      <stop offset="1" stop-color="#C2E87F"/>
    </linearGradient>
    <filter id="shadow" x="995" y="270" width="380" height="280" filterUnits="userSpaceOnUse" color-interpolation-filters="sRGB">
      <feFlood flood-opacity="0" result="BackgroundImageFix"/>
      <feColorMatrix in="SourceAlpha" type="matrix" values="0 0 0 0 0 0 0 0 0 0 0 0 0 0 0 0 0 0 127 0" result="hardAlpha"/>
      <feOffset dy="8"/>
      <feGaussianBlur stdDeviation="20"/>
      <feComposite in2="hardAlpha" operator="out"/>
      <feColorMatrix type="matrix" values="0 0 0 0 0.008 0 0 0 0 0.047 0 0 0 0 0.082 0 0 0 0.35 0"/>
      <feBlend mode="normal" in2="BackgroundImageFix" result="effect1_dropShadow_1_1"/>
      <feBlend mode="normal" in="SourceGraphic" in2="effect1_dropShadow_1_1" result="shape"/>
    </filter>
  </defs>
</svg>
