<svg width="1200" height="720" viewBox="0 0 1200 720" fill="none" xmlns="http://www.w3.org/2000/svg">
  <defs>
    <linearGradient id="bg" x1="98" y1="72" x2="1120" y2="650" gradientUnits="userSpaceOnUse">
      <stop stop-color="#08121E"/>
      <stop offset="0.52" stop-color="#0B1624"/>
      <stop offset="1" stop-color="#122233"/>
    </linearGradient>
    <radialGradient id="glowA" cx="0" cy="0" r="1" gradientUnits="userSpaceOnUse" gradientTransform="translate(234 168) rotate(90) scale(220 290)">
      <stop stop-color="#66D6FF" stop-opacity="0.2"/>
      <stop offset="1" stop-color="#66D6FF" stop-opacity="0"/>
    </radialGradient>
    <radialGradient id="glowB" cx="0" cy="0" r="1" gradientUnits="userSpaceOnUse" gradientTransform="translate(964 516) rotate(90) scale(220 310)">
      <stop stop-color="#8EFFC9" stop-opacity="0.14"/>
      <stop offset="1" stop-color="#8EFFC9" stop-opacity="0"/>
    </radialGradient>
    <linearGradient id="header" x1="0" y1="0" x2="0" y2="1">
      <stop stop-color="#102033"/>
      <stop offset="1" stop-color="#0B1828"/>
    </linearGradient>
  </defs>

  <rect width="1200" height="720" rx="38" fill="url(#bg)"/>
  <rect width="1200" height="720" rx="38" fill="url(#glowA)"/>
  <rect width="1200" height="720" rx="38" fill="url(#glowB)"/>

  <g transform="translate(88 96)">
    <rect width="1024" height="528" rx="34" fill="#0A1521" stroke="#26465A" stroke-width="2"/>
    <rect width="1024" height="74" rx="34" fill="url(#header)"/>
    <circle cx="42" cy="37" r="8" fill="#5AD5FF" fill-opacity="0.7"/>
    <circle cx="68" cy="37" r="8" fill="#86FFC6" fill-opacity="0.7"/>
    <circle cx="94" cy="37" r="8" fill="#FFFFFF" fill-opacity="0.18"/>
    <rect x="136" y="22" width="176" height="26" rx="13" fill="#132637"/>
    <rect x="850" y="22" width="128" height="26" rx="13" fill="#112233"/>

    <rect x="28" y="102" width="232" height="390" rx="28" fill="#0B1826" stroke="#25475D" stroke-width="2"/>
    <rect x="290" y="102" width="706" height="390" rx="28" fill="#0B1724" stroke="#26485E" stroke-width="2"/>

    <g transform="translate(48 126)">
      <rect width="192" height="82" rx="22" fill="#0E1C2B" stroke="#2B5363" stroke-width="2"/>
      <rect x="18" y="18" width="46" height="46" rx="16" fill="#12283B" stroke="#305B68"/>
      <path d="M30 40H52" stroke="#84FFC7" stroke-width="4" stroke-linecap="round"/>
      <path d="M36 52H46" stroke="#84FFC7" stroke-width="4" stroke-linecap="round"/>
      <rect x="84" y="20" width="78" height="12" rx="6" fill="#153146"/>
      <rect x="84" y="42" width="56" height="10" rx="5" fill="#112A3B"/>
      <rect x="84" y="60" width="88" height="10" rx="5" fill="#112A3B"/>
    </g>

    <g transform="translate(48 226)">
      <rect width="192" height="82" rx="22" fill="#0E1C2B" stroke="#2B5363" stroke-width="2"/>
      <rect x="18" y="18" width="46" height="46" rx="16" fill="#12283B" stroke="#305B68"/>
      <rect x="27" y="28" width="28" height="24" rx="8" fill="#5BD7FF" fill-opacity="0.55"/>
      <rect x="84" y="20" width="78" height="12" rx="6" fill="#153146"/>
      <rect x="84" y="42" width="56" height="10" rx="5" fill="#112A3B"/>
      <rect x="84" y="60" width="88" height="10" rx="5" fill="#112A3B"/>
    </g>

    <g transform="translate(48 326)">
      <rect width="192" height="82" rx="22" fill="#0E1C2B" stroke="#2B5363" stroke-width="2"/>
      <rect x="18" y="18" width="46" height="46" rx="16" fill="#12283B" stroke="#305B68"/>
      <circle cx="41" cy="41" r="12" fill="#86FFC6" fill-opacity="0.6"/>
      <rect x="84" y="20" width="78" height="12" rx="6" fill="#153146"/>
      <rect x="84" y="42" width="56" height="10" rx="5" fill="#112A3B"/>
      <rect x="84" y="60" width="88" height="10" rx="5" fill="#112A3B"/>
    </g>

    <g transform="translate(318 132)">
      <rect width="650" height="52" rx="18" fill="#0D1A29" stroke="#294B5D" stroke-width="2"/>
      <rect x="22" y="18" width="54" height="16" rx="8" fill="#153248"/>
      <rect x="110" y="18" width="54" height="16" rx="8" fill="#153248"/>
      <rect x="198" y="18" width="54" height="16" rx="8" fill="#153248"/>
      <rect x="286" y="18" width="54" height="16" rx="8" fill="#153248"/>
      <rect x="374" y="18" width="54" height="16" rx="8" fill="#153248"/>
      <rect x="462" y="18" width="54" height="16" rx="8" fill="#153248"/>
      <rect x="550" y="18" width="54" height="16" rx="8" fill="#153248"/>
    </g>

    <g transform="translate(318 208)">
      <rect width="650" height="244" rx="26" fill="#0B1724" stroke="#27485A" stroke-width="2"/>
      <g opacity="0.2">
        <path d="M120 0V244" stroke="#7DE7FF" stroke-width="2"/>
        <path d="M224 0V244" stroke="#7DE7FF" stroke-width="2"/>
        <path d="M328 0V244" stroke="#7DE7FF" stroke-width="2"/>
        <path d="M432 0V244" stroke="#7DE7FF" stroke-width="2"/>
        <path d="M536 0V244" stroke="#7DE7FF" stroke-width="2"/>
        <path d="M0 62H650" stroke="#7DE7FF" stroke-width="2"/>
        <path d="M0 124H650" stroke="#7DE7FF" stroke-width="2"/>
        <path d="M0 186H650" stroke="#7DE7FF" stroke-width="2"/>
      </g>

      <rect x="138" y="22" width="168" height="34" rx="17" fill="#5BD7FF" fill-opacity="0.16" stroke="#4FD7FF"/>
      <rect x="324" y="22" width="112" height="34" rx="17" fill="#86FFC6" fill-opacity="0.2" stroke="#86FFC6"/>
      <rect x="452" y="22" width="144" height="34" rx="17" fill="#5BD7FF" fill-opacity="0.12" stroke="#4FD7FF"/>

      <rect x="50" y="88" width="136" height="34" rx="17" fill="#86FFC6" fill-opacity="0.16" stroke="#86FFC6"/>
      <rect x="246" y="88" width="186" height="34" rx="17" fill="#5BD7FF" fill-opacity="0.12" stroke="#4FD7FF"/>
      <rect x="458" y="88" width="128" height="34" rx="17" fill="#86FFC6" fill-opacity="0.14" stroke="#86FFC6"/>

      <rect x="94" y="150" width="154" height="34" rx="17" fill="#5BD7FF" fill-opacity="0.14" stroke="#4FD7FF"/>
      <rect x="278" y="150" width="124" height="34" rx="17" fill="#86FFC6" fill-opacity="0.16" stroke="#86FFC6"/>
      <rect x="426" y="150" width="170" height="34" rx="17" fill="#5BD7FF" fill-opacity="0.12" stroke="#4FD7FF"/>
    </g>

    <g transform="translate(780 456)">
      <rect width="188" height="36" rx="18" fill="#0E1C2B" stroke="#2B5363" stroke-width="2"/>
      <circle cx="28" cy="18" r="8" fill="#86FFC6"/>
      <rect x="46" y="12" width="102" height="12" rx="6" fill="#143248"/>
    </g>
  </g>
</svg>
